<svg width="24" height="24" viewBox="0 0 24 24" fill="none" xmlns="http://www.w3.org/2000/svg">
<path d="M16.2881 14C16.1215 14.0003 15.9601 13.9421 15.8319 13.8356L12.0128 10.6392L8.18681 13.7262C8.11443 13.79 8.02993 13.8384 7.93838 13.8686C7.84684 13.8987 7.75015 13.9101 7.65413 13.9019C7.5581 13.8937 7.46472 13.8661 7.3796 13.8208C7.29448 13.7756 7.21938 13.7136 7.15881 13.6385C7.09824 13.5634 7.05346 13.4768 7.02715 13.384C7.00084 13.2911 6.99355 13.1939 7.00572 13.0982C7.01789 13.0024 7.04926 12.9102 7.09796 12.8269C7.14665 12.7436 7.21166 12.671 7.28907 12.6135L11.5644 9.1621C11.6919 9.05729 11.8518 9 12.0167 9C12.1817 9 12.3415 9.05729 12.469 9.16211L16.7443 12.7297C16.8566 12.8244 16.9372 12.9513 16.9753 13.0933C17.0135 13.2353 17.0073 13.3855 16.9576 13.5238C16.9079 13.6622 16.8171 13.782 16.6974 13.8671C16.5777 13.9522 16.4349 13.9986 16.2881 14Z" fill="#8C939F"/>
</svg>
