<svg  xmlns="http://www.w3.org/2000/svg" style="display:none;">
    <symbol id="icon-arrow" viewBox="0 0 32 32">
        <path d="M10.283 13.333c0.222-0 0.437 0.077 0.608 0.219l5.092 4.262 5.101-4.116c0.097-0.085 0.209-0.15 0.331-0.19s0.251-0.055 0.379-0.044c0.128 0.011 0.253 0.048 0.366 0.108s0.214 0.143 0.294 0.243 0.14 0.216 0.175 0.339c0.035 0.124 0.045 0.253 0.029 0.381s-0.058 0.251-0.123 0.362c-0.065 0.111-0.152 0.208-0.255 0.285l-5.7 4.602c-0.17 0.14-0.383 0.216-0.603 0.216s-0.433-0.076-0.603-0.216l-5.7-4.757c-0.15-0.126-0.257-0.295-0.308-0.485s-0.043-0.39 0.024-0.574c0.066-0.185 0.187-0.344 0.347-0.458s0.35-0.175 0.546-0.177z"></path>
    </symbol>


    <symbol id="icon-plus" viewBox="0 0 32 32">
        <path d="M21.625 14.959h-4.583v-4.584c0-0.276-0.11-0.541-0.305-0.737s-0.46-0.305-0.737-0.305c-0.276 0-0.541 0.11-0.737 0.305s-0.305 0.46-0.305 0.737v4.584h-4.583c-0.276 0-0.541 0.11-0.737 0.305s-0.305 0.46-0.305 0.737c0 0.276 0.11 0.541 0.305 0.737s0.46 0.305 0.737 0.305h4.584v4.583c0 0.276 0.11 0.541 0.305 0.737s0.46 0.305 0.737 0.305c0.276 0 0.541-0.11 0.737-0.305s0.305-0.46 0.305-0.737v-4.584h4.583c0.276 0 0.541-0.11 0.737-0.305s0.305-0.46 0.305-0.737c0-0.276-0.11-0.541-0.305-0.737s-0.46-0.305-0.737-0.305l-0.001 0.001z"></path>
    </symbol>
</svg>